<svg width="12" height="32" viewBox="0 0 12 32" fill="none" xmlns="http://www.w3.org/2000/svg">
<path d="M6.00001 0C3.36001 0 1.20001 2.16 1.20001 4.8C1.20001 8.04 5.40001 11.7 5.58001 11.88C5.70001 11.94 5.88001 12 6.00001 12C6.12001 12 6.30001 11.94 6.42001 11.88C6.60001 11.7 10.8 8.04 10.8 4.8C10.8 2.16 8.64001 0 6.00001 0ZM6.00001 10.62C4.74001 9.42 2.40001 6.84 2.40001 4.8C2.40001 2.82 4.02001 1.2 6.00001 1.2C7.98001 1.2 9.60001 2.82 9.60001 4.8C9.60001 6.78 7.26001 9.42 6.00001 10.62ZM6.00001 2.4C4.68001 2.4 3.60001 3.48 3.60001 4.8C3.60001 6.12 4.68001 7.2 6.00001 7.2C7.32001 7.2 8.40001 6.12 8.40001 4.8C8.40001 3.48 7.32001 2.4 6.00001 2.4ZM6.00001 6C5.34001 6 4.80001 5.46 4.80001 4.8C4.80001 4.14 5.34001 3.6 6.00001 3.6C6.66001 3.6 7.20001 4.14 7.20001 4.8C7.20001 5.46 6.66001 6 6.00001 6Z" fill="#585D6E"/>
<path d="M6 30.8C7.27304 30.8 8.49394 30.2943 9.39411 29.3941C10.2943 28.4939 10.8 27.273 10.8 26C10.8 24.727 10.2943 23.5061 9.39411 22.6059C8.49394 21.7057 7.27304 21.2 6 21.2C4.72696 21.2 3.50606 21.7057 2.60589 22.6059C1.70571 23.5061 1.2 24.727 1.2 26C1.2 27.273 1.70571 28.4939 2.60589 29.3941C3.50606 30.2943 4.72696 30.8 6 30.8ZM6 20C6.78793 20 7.56815 20.1552 8.2961 20.4567C9.02405 20.7583 9.68549 21.2002 10.2426 21.7574C10.7998 22.3145 11.2417 22.9759 11.5433 23.7039C11.8448 24.4319 12 25.2121 12 26C12 27.5913 11.3679 29.1174 10.2426 30.2426C9.11742 31.3679 7.5913 32 6 32C2.682 32 0 29.3 0 26C0 24.4087 0.632141 22.8826 1.75736 21.7574C2.88258 20.6321 4.4087 20 6 20ZM6.3 23V26.15L9 27.752L8.55 28.49L5.4 26.6V23H6.3Z" fill="#585D6E"/>
</svg>
