<svg width="13" height="18" viewBox="0 0 13 18" fill="none" xmlns="http://www.w3.org/2000/svg">
<path d="M0.754143 3.68504C0.754143 2.65923 0.754143 2.14632 0.962908 1.75431C1.14653 1.40965 1.43952 1.12943 1.79989 0.95381C2.20976 0.754143 2.74604 0.754143 3.8186 0.754143H9.18139C10.2539 0.754143 10.7902 0.754143 11.2001 0.95381C11.5605 1.12943 11.8535 1.40965 12.0371 1.75431C12.2458 2.14632 12.2458 2.65923 12.2458 3.68504V15.8712C12.2458 16.3163 12.2458 16.5389 12.1491 16.6607C12.1073 16.7137 12.054 16.7573 11.9928 16.7886C11.9316 16.82 11.8641 16.8382 11.7948 16.842C11.6349 16.8512 11.4414 16.7276 11.0545 16.4812L6.49999 13.5768L1.94545 16.4803C1.55856 16.7276 1.36512 16.8512 1.20423 16.842C1.13513 16.838 1.06775 16.8198 1.00674 16.7885C0.945736 16.7571 0.892555 16.7136 0.850864 16.6607C0.754142 16.5389 0.754143 16.3163 0.754143 15.8712V3.68504Z" stroke="#AAAAAA" stroke-width="1.5" stroke-linecap="round" stroke-linejoin="round"/>
</svg>
